<svg width="1440" height="856" viewBox="0 0 1440 856" fill="none" xmlns="http://www.w3.org/2000/svg">
<mask id="mask0" mask-type="alpha" maskUnits="userSpaceOnUse" x="0" y="0" width="1440" height="856">
<path d="M0 0H1440V600C1440 600 1137.5 856 720 856C302.5 856 0 600 0 600V0Z" fill="#10495C"/>
</mask>
<g mask="url(#mask0)">
<path d="M0 0H1440V600C1440 600 1137.5 856 720 856C302.5 856 0 600 0 600V0Z" fill="#10495C"/>
<path opacity="0.5" fill-rule="evenodd" clip-rule="evenodd" d="M407.921 626.239C378.952 687.387 348.257 713.18 315.95 717.755C283.574 722.339 249.276 705.675 212.954 681.091C196.019 669.629 178.688 656.478 160.944 643.013L160.942 643.01C159.677 642.051 158.41 641.089 157.141 640.127C138.075 625.666 118.538 610.962 98.5484 597.74C58.581 571.305 16.7025 550.727 -27.0256 549.869L-27.055 551.369C16.2365 552.218 57.8192 572.6 97.7209 598.991C117.665 612.183 137.166 626.859 156.234 641.322C157.505 642.285 158.774 643.248 160.041 644.21L160.043 644.211C177.779 657.671 195.143 670.847 212.113 682.333C248.442 706.922 283.17 723.911 316.16 719.24C349.22 714.559 380.232 688.19 409.277 626.881C438.248 565.729 470.933 523.394 507.233 493.838C543.53 464.284 583.481 447.475 627.034 437.429C670.599 427.38 717.751 424.103 768.455 421.604C776.405 421.212 784.443 420.839 792.567 420.463C836.238 418.438 882.413 416.297 931.009 410.441C1023.41 399.304 1111.84 340.112 1184.8 270.758C1257.77 201.391 1315.36 121.768 1346.07 69.5975L1344.78 68.8365C1314.12 120.903 1256.62 200.412 1183.77 269.671C1110.9 338.944 1022.76 397.873 930.83 408.951C882.293 414.801 836.181 416.939 792.51 418.964C784.382 419.341 776.339 419.714 768.381 420.106C717.678 422.604 670.406 425.886 626.697 435.968C582.974 446.052 542.799 462.945 506.286 492.675C469.775 522.403 436.965 564.933 407.921 626.239ZM393.668 585.603C364.699 646.751 334.003 672.545 301.697 677.119C269.321 681.703 235.023 665.039 198.701 640.456C181.769 628.996 164.441 615.846 146.699 602.383L146.698 602.382L146.696 602.381L146.695 602.38L146.692 602.377L146.688 602.375L145.125 601.188L142.887 599.491C123.822 585.03 104.285 570.327 84.2953 557.105C44.3279 530.67 2.44948 510.091 -41.2786 509.234L-41.3081 510.733C1.98341 511.582 43.5661 531.964 83.4678 558.356C103.412 571.547 122.913 586.224 141.981 600.686L143.863 602.114L145.788 603.574L145.79 603.576L145.791 603.577C163.527 617.036 180.89 630.212 197.86 641.698C234.189 666.287 268.916 683.275 301.907 678.604C334.967 673.923 365.978 647.554 395.024 586.245C423.995 525.094 456.68 482.759 492.98 453.203C529.277 423.649 569.228 406.839 612.781 396.794C656.346 386.745 703.498 383.467 754.202 380.969C762.152 380.577 770.19 380.204 778.314 379.827C821.985 377.803 868.16 375.662 916.756 369.805C1009.16 358.669 1097.59 299.476 1170.55 230.123C1243.52 160.755 1301.1 81.1322 1331.82 28.9621L1330.52 28.2011C1299.87 80.2677 1242.37 159.777 1169.51 229.036C1096.64 298.309 1008.5 357.237 916.577 368.316C868.04 374.165 821.928 376.304 778.257 378.328C770.129 378.705 762.086 379.078 754.128 379.47C703.425 381.969 656.153 385.25 612.443 395.332C568.721 405.417 528.546 422.31 492.033 452.04C455.522 481.767 422.712 524.298 393.668 585.603ZM379.415 544.968C350.446 606.116 319.75 631.909 287.444 636.484C255.068 641.068 220.769 624.404 184.447 599.82C167.516 588.36 150.188 575.211 132.447 561.748L132.446 561.747L132.444 561.746L132.441 561.744L132.438 561.742L132.435 561.74L130.427 560.215L128.634 558.856C109.568 544.395 90.0322 529.691 70.0422 516.469C30.0748 490.034 -11.8037 469.456 -55.5318 468.598L-55.5612 470.098C-12.2698 470.947 29.313 491.329 69.2147 517.72C89.1591 530.912 108.66 545.588 127.728 560.051C128.999 561.015 130.267 561.977 131.534 562.939L131.536 562.94L131.538 562.942C149.274 576.401 166.637 589.577 183.607 601.062C219.936 625.651 254.663 642.64 287.654 637.969C320.714 633.288 351.725 606.919 380.771 545.61C409.741 484.458 442.427 442.124 478.727 412.567C515.024 383.013 554.975 366.204 598.527 356.158C642.093 346.11 689.245 342.832 739.949 340.333C747.899 339.941 755.937 339.569 764.061 339.192C807.732 337.167 853.907 335.026 902.503 329.17C994.907 318.033 1083.34 258.841 1156.29 189.487C1229.27 120.12 1286.85 40.4968 1317.56 -11.6733L1316.27 -12.4343C1285.62 39.6323 1228.12 119.141 1155.26 188.4C1082.39 257.673 994.25 316.602 902.324 327.681C853.787 333.53 807.675 335.668 764.003 337.693C755.876 338.07 747.833 338.443 739.875 338.835C689.172 341.334 641.9 344.615 598.19 354.697C554.468 364.782 514.293 381.674 477.78 411.404C441.269 441.132 408.459 483.662 379.415 544.968ZM273.19 595.848C305.497 591.274 336.193 565.48 365.162 504.332C394.205 443.027 427.016 400.496 463.526 370.769C500.04 341.039 540.214 324.146 583.937 314.061C627.646 303.979 674.918 300.698 725.621 298.199C733.58 297.807 741.623 297.434 749.75 297.058C793.421 295.033 839.534 292.895 888.07 287.045C979.997 275.966 1068.14 217.038 1141.01 147.765C1213.86 78.5059 1271.36 -1.00314 1302.02 -53.0697L1303.31 -52.3088C1272.6 -0.138643 1215.01 79.4844 1142.04 148.852C1069.08 218.206 980.654 277.398 888.25 288.534C839.653 294.391 793.479 296.532 749.808 298.557C741.683 298.933 733.646 299.306 725.695 299.698C674.991 302.196 627.84 305.474 584.274 315.523C540.722 325.569 500.771 342.378 464.473 371.932C428.173 401.488 395.488 443.823 366.517 504.975C337.472 566.283 306.46 592.653 273.401 597.333C240.41 602.004 205.683 585.016 169.353 560.427C152.383 548.941 135.021 535.765 117.285 522.306L117.283 522.305L117.281 522.303C116.014 521.342 114.745 520.379 113.474 519.415C94.4062 504.953 74.9057 490.277 54.9613 477.085C15.0596 450.693 -26.5231 430.312 -69.8146 429.462L-69.7851 427.963C-26.057 428.82 15.8214 449.399 55.7888 475.834C75.7789 489.056 95.315 503.76 114.381 518.22L115.601 519.146L118.182 521.104L118.185 521.106L118.188 521.109L118.191 521.111L118.192 521.112C135.934 534.575 153.262 547.725 170.194 559.185C206.516 583.769 240.815 600.432 273.19 595.848ZM350.908 463.697C321.939 524.845 291.244 550.638 258.937 555.213C226.561 559.797 192.263 543.133 155.941 518.549C139.007 507.088 121.677 493.937 103.934 480.473L103.931 480.471L103.929 480.469C102.664 479.509 101.397 478.547 100.128 477.585C81.0617 463.124 61.5255 448.42 41.5355 435.198C1.5681 408.763 -40.3104 388.185 -84.0385 387.327L-84.0679 388.827C-40.7764 389.676 0.806277 410.058 40.708 436.45C60.6524 449.641 80.1529 464.317 99.2211 478.78L101.36 480.403L103.028 481.668L103.03 481.67L103.033 481.672L103.037 481.675C120.771 495.132 138.132 508.307 155.1 519.791C191.429 544.38 226.157 561.369 259.147 556.698C292.207 552.017 323.219 525.648 352.264 464.339C381.235 403.187 413.92 360.853 450.22 331.297C486.517 301.743 526.468 284.933 570.021 274.887C613.586 264.839 660.738 261.561 711.442 259.062C719.392 258.67 727.43 258.298 735.554 257.921C779.225 255.896 825.4 253.756 873.996 247.899C966.4 236.763 1054.83 177.57 1127.79 108.217C1200.76 38.8489 1258.34 -40.7741 1289.06 -92.9442L1287.76 -93.7052C1257.11 -41.6386 1199.61 37.8704 1126.75 107.129C1053.88 176.402 965.743 235.331 873.817 246.41C825.281 252.259 779.169 254.397 735.498 256.422L735.497 256.422C727.369 256.799 719.326 257.172 711.368 257.564C660.665 260.063 613.393 263.344 569.684 273.426C525.961 283.511 485.786 300.404 449.273 330.133C412.762 359.861 379.952 402.392 350.908 463.697ZM244.684 514.577C276.991 510.003 307.686 484.209 336.655 423.061C365.699 361.756 398.509 319.225 435.02 289.498C471.533 259.768 511.708 242.875 555.43 232.79C599.14 222.708 646.412 219.427 697.115 216.929C705.073 216.536 713.116 216.163 721.244 215.787C764.915 213.762 811.027 211.624 859.564 205.774C951.49 194.695 1039.63 135.767 1112.5 66.4938C1185.36 -2.76508 1242.86 -82.2741 1273.51 -134.341L1274.8 -133.58C1244.09 -81.4096 1186.51 -1.78661 1113.53 67.581C1040.58 136.935 952.147 196.127 859.743 207.263C811.147 213.12 764.972 215.261 721.301 217.286L721.292 217.286L721.264 217.287C713.152 217.663 705.127 218.035 697.189 218.427C646.485 220.925 599.333 224.203 555.768 234.252C512.215 244.298 472.264 261.107 435.967 290.661C399.667 320.217 366.982 362.552 338.011 423.704C308.965 485.012 277.954 511.382 244.894 516.062C211.904 520.734 177.176 503.745 140.847 479.156C123.878 467.671 106.515 454.495 88.78 441.037L88.7773 441.035L88.7746 441.032C87.5077 440.071 86.2388 439.108 84.968 438.144C65.8998 423.682 46.3993 409.006 26.4549 395.814C-13.4468 369.422 -55.0295 349.041 -98.321 348.191L-98.2916 346.692C-54.5635 347.549 -12.685 368.128 27.2824 394.563C47.2724 407.785 66.8086 422.489 85.8745 436.949C87.1437 437.912 88.4107 438.873 89.6755 439.833L89.6782 439.835L89.6808 439.837C107.424 453.302 124.754 466.453 141.688 477.914C178.01 502.498 212.308 519.161 244.684 514.577Z" fill="url(#paint0_linear)"/>
</g>
<defs>
<linearGradient id="paint0_linear" x1="1249.24" y1="378.51" x2="142.099" y2="590.833" gradientUnits="userSpaceOnUse">
<stop stop-color="#846CCA"/>
<stop offset="0.453125" stop-color="#215D71"/>
<stop offset="1" stop-color="#81782C"/>
</linearGradient>
</defs>
</svg>
